<?xml version="1.0" encoding="utf-8"?>
<!-- Generator: Adobe Illustrator 28.2.0, SVG Export Plug-In . SVG Version: 6.00 Build 0)  -->
<svg version="1.1" id="Calque_1" xmlns="http://www.w3.org/2000/svg" xmlns:xlink="http://www.w3.org/1999/xlink" x="0px" y="0px"
	 viewBox="0 0 20 20" style="enable-background:new 0 0 20 20;" xml:space="preserve">
<style type="text/css">
	.st0{fill:#4AD5FF;}
	.st1{fill-rule:evenodd;clip-rule:evenodd;fill:#FFFFFF;}
	.st2{fill:#FFFFFF;}
</style>
<path class="st0" d="M0,3.1v13.9C0,18.6,1.4,20,3.1,20h13.9c1.7,0,3.1-1.4,3.1-3.1V3.1C20,1.4,18.6,0,16.9,0H3.1C1.4,0,0,1.4,0,3.1z
	"/>
<g transform="matrix(.06928 0 0 .06928 7.367398 13.505331)">
	<g>
		<circle class="st1" cx="38.1" cy="-50.7" r="19.4"/>
	</g>
	<g>
		<g>
			<path class="st2" d="M38.1-6.3c-27.2,0-51-3.2-68.8-9.3c-24.5-8.4-39.7-21.8-39.7-35.1c0-12.8,14.1-25.4,37.7-33.6
				c19.3-6.7,44.5-10.5,70.9-10.5h0c25.9,0,50.7,3.6,69.9,10.3c24.2,8.3,38.6,20.9,38.6,33.8c0,13.3-15.7,26.8-41.1,35.2
				C87.6-9.5,63.6-6.3,38.1-6.3z M38.1-85.5c-25,0-49.7,3.6-67.8,9.9C-51.5-68-61.2-57.6-61.2-50.7c0,7.2,10.5,18.5,33.4,26.4
				c16.9,5.8,39.6,8.8,65.9,8.8c24.6,0,47.5-3.1,64.5-8.8c23.9-7.9,34.7-19.2,34.7-26.4c0-6.7-10.1-17.4-32.3-25
				C86.7-82,62.9-85.5,38.1-85.5z"/>
		</g>
		<g>
			<path class="st2" d="M-5.9,46c-3.9,0-7.4-0.8-10.4-2.6C-27.4,37-31.3,18.5-26.6-6c3.8-20.1,13.2-43.8,26.4-66.6l0,0
				c12.9-22.4,28.5-42.1,43.8-55.5c19.3-16.8,37.4-23,48.5-16.6c11.5,6.7,15.4,27,10,53.2c-3.8,18.5-12.9,40.9-25.7,63
				c-13.6,23.6-28.3,42.6-42.5,55C19.5,39.2,5.2,46-5.9,46z M7.8-68L7.8-68C-4.7-46.3-13.9-23.1-17.5-4.3
				c-4.3,22.6-0.2,36.2,5.8,39.6c6.2,3.6,21.3,0.2,39.5-15.8C41.3,7.9,55.3-10.3,68.4-33c12.3-21.3,21-42.7,24.7-60.3
				c5.1-24.6,0.7-39.7-5.5-43.3c-5.8-3.3-20.1,0.1-37.8,15.5C35.1-108.4,20.2-89.5,7.8-68z"/>
		</g>
		<g>
			<path class="st2" d="M82.1,46.1c-10.5,0-23.9-6.4-37.7-18.3C28.8,14.4,13-5.5-0.2-28.3c-13-22.4-22.2-45.7-26.2-65.7
				c-4.9-25.1-1.2-43.9,9.9-50.3c11.5-6.7,31.1,0.2,51,17.9c14.1,12.6,29,31.7,41.8,53.8C90-49.1,99.1-26.9,102.8-8.4
				c5,25.4,1,45.3-10.5,51.9C89.3,45.2,85.9,46.1,82.1,46.1z M-6.3-137.6c-2.3,0-4.1,0.4-5.5,1.2c-5.8,3.4-10,17.5-5.4,40.5
				c3.7,19,12.6,41.3,25.1,62.8h0c12.5,21.6,28,41.2,42.6,53.7c17.4,15,31.3,18.2,37.2,14.8c6.2-3.6,10.8-18.3,6.1-42.1
				C90.2-24.1,81.5-45.3,68.3-68C56-89.3,41.8-107.6,28.4-119.5C13.9-132.4,1.5-137.6-6.3-137.6z"/>
		</g>
	</g>
</g>
</svg>
